<?xml version="1.0" encoding="utf-8"?>
<!-- Generator: Adobe Illustrator 16.0.0, SVG Export Plug-In . SVG Version: 6.00 Build 0)  -->
<!DOCTYPE svg PUBLIC "-//W3C//DTD SVG 1.1//EN" "http://www.w3.org/Graphics/SVG/1.1/DTD/svg11.dtd">
<svg version="1.1" xmlns="http://www.w3.org/2000/svg" xmlns:xlink="http://www.w3.org/1999/xlink" x="0px" y="0px"
	 width="160.703px" height="54.379px" viewBox="0 0 160.703 54.379" enable-background="new 0 0 160.703 54.379"
	 xml:space="preserve">
<g id="Layer_2" display="none">
	<rect y="0" display="inline" stroke="#FFFFFF" stroke-miterlimit="10" width="160.703" height="54.379"/>
</g>
<g id="Layer_1">
	<g>
		<g>
			<path fill="#511575" d="M2.412,50.232H4.02c0.298,0,0.327,0.028,0.327,0.317v0.775c0,0.287-0.029,0.316-0.327,0.316H2.412v1.102
				h1.717c0.297,0,0.328,0.03,0.328,0.316v0.775c0,0.289-0.03,0.316-0.328,0.316H1.022c-0.298,0-0.328-0.027-0.328-0.316v-5.756
				c0-0.289,0.029-0.316,0.328-0.316h3.107c0.297,0,0.328,0.027,0.328,0.316v0.775c0,0.287-0.03,0.316-0.328,0.316H2.412V50.232z"/>
		</g>
	</g>
	<g>
		<g>
			<path fill="#511575" d="M18.378,52.743c0.296,0,0.327,0.03,0.327,0.316v0.775c0,0.289-0.031,0.316-0.327,0.316h-3.127
				c-0.297,0-0.327-0.027-0.327-0.316v-5.756c0-0.289,0.03-0.316,0.327-0.316h1.062c0.297,0,0.327,0.027,0.327,0.316v4.664H18.378z"
				/>
		</g>
	</g>
	<g>
		<g>
			<path fill="#511575" d="M30.89,50.232h1.607c0.297,0,0.328,0.028,0.328,0.317v0.775c0,0.287-0.03,0.316-0.328,0.316H30.89v1.102
				h1.717c0.298,0,0.328,0.03,0.328,0.316v0.775c0,0.289-0.03,0.316-0.328,0.316H29.5c-0.298,0-0.328-0.027-0.328-0.316v-5.756
				c0-0.289,0.03-0.316,0.328-0.316h3.107c0.298,0,0.328,0.027,0.328,0.316v0.775c0,0.287-0.03,0.316-0.328,0.316H30.89V50.232z"/>
		</g>
	</g>
	<g>
		<g>
			<path fill="#511575" d="M48.463,49.36c0,0.23-0.06,0.336-0.189,0.326c-0.039,0-0.079-0.02-0.127-0.057
				c-0.467-0.299-0.715-0.383-1.133-0.383c-1.082,0-1.816,0.717-1.816,1.754c0,1.022,0.745,1.713,1.847,1.713
				c0.447,0,0.814-0.125,1.151-0.393c0.041-0.029,0.079-0.049,0.119-0.049c0.12,0,0.149,0.076,0.149,0.325v1.149
				c0,0.201-0.01,0.229-0.079,0.277c-0.03,0.02-0.051,0.029-0.1,0.039c-0.705,0.221-0.923,0.26-1.341,0.26
				c-1.995,0-3.542-1.457-3.542-3.334c0-1.869,1.558-3.361,3.514-3.361c0.437,0,0.963,0.096,1.399,0.268
				c0.14,0.049,0.149,0.087,0.149,0.316L48.463,49.36L48.463,49.36z"/>
		</g>
	</g>
	<g>
		<g>
			<path fill="#511575" d="M62.046,53.834c0,0.287-0.03,0.315-0.328,0.315h-1.062c-0.298,0-0.327-0.028-0.327-0.315V49.17h-1.073
				c-0.297,0-0.327-0.029-0.327-0.316v-0.775c0-0.289,0.03-0.316,0.327-0.316h3.891c0.298,0,0.328,0.027,0.328,0.316v0.775
				c0,0.287-0.029,0.316-0.328,0.316h-1.101V53.834z"/>
		</g>
	</g>
	<g>
		<g>
			<path fill="#511575" d="M79.114,53.739c0.109,0.135,0.119,0.161,0.129,0.229c0.009,0.125-0.09,0.183-0.338,0.183h-1.37
				c-0.229,0-0.238-0.011-0.317-0.125c-0.01-0.01-0.02-0.026-0.049-0.065l-1.509-2.262v2.137c0,0.289-0.03,0.316-0.327,0.316h-1.062
				c-0.299,0-0.328-0.027-0.328-0.316v-5.756c0-0.289,0.029-0.316,0.328-0.316h2.341c0.755,0,1.242,0.172,1.628,0.564
				c0.358,0.363,0.566,0.881,0.566,1.408c0,0.958-0.505,1.59-1.449,1.801L79.114,53.739z M75.978,50.625
				c0.674,0,1.062-0.297,1.062-0.795c0-0.5-0.398-0.795-1.062-0.795H75.66v1.59H75.978L75.978,50.625z"/>
		</g>
	</g>
	<g>
		<g>
			<path fill="#511575" d="M96.302,50.971c0,1.943-1.569,3.408-3.663,3.408c-2.095,0-3.664-1.465-3.664-3.408
				c0-1.936,1.569-3.401,3.664-3.401C94.732,47.57,96.302,49.025,96.302,50.971 M90.771,50.971c0,0.996,0.832,1.802,1.865,1.802
				s1.866-0.806,1.866-1.802c0-0.987-0.833-1.792-1.866-1.792S90.771,49.984,90.771,50.971"/>
		</g>
	</g>
	<g>
		<g>
			<path fill="#511575" d="M111.652,48.079c0-0.289,0.029-0.316,0.328-0.316h1.062c0.297,0,0.328,0.027,0.328,0.316v5.756
				c0,0.289-0.031,0.316-0.328,0.316h-1.162c-0.249,0-0.219,0.01-0.368-0.172l-3.027-3.736v3.592c0,0.289-0.03,0.316-0.327,0.316
				h-1.062c-0.298,0-0.328-0.027-0.328-0.316v-5.756c0-0.289,0.03-0.316,0.328-0.316h1.161c0.249,0,0.218-0.01,0.368,0.172
				l3.027,3.736V48.079L111.652,48.079z"/>
		</g>
	</g>
	<g>
		<g>
			<path fill="#511575" d="M126.288,53.834c0,0.287-0.029,0.315-0.327,0.315h-1.062c-0.297,0-0.326-0.028-0.326-0.315v-5.758
				c0-0.287,0.029-0.316,0.326-0.316h1.062c0.298,0,0.327,0.029,0.327,0.316V53.834z"/>
		</g>
	</g>
	<g>
		<g>
			<path fill="#511575" d="M141.816,49.36c0,0.23-0.06,0.336-0.188,0.326c-0.041,0-0.081-0.02-0.129-0.057
				c-0.467-0.299-0.715-0.383-1.131-0.383c-1.082,0-1.817,0.717-1.817,1.754c0,1.022,0.745,1.713,1.847,1.713
				c0.445,0,0.813-0.125,1.15-0.393c0.04-0.029,0.081-0.049,0.119-0.049c0.119,0,0.15,0.076,0.15,0.325v1.149
				c0,0.201-0.01,0.229-0.08,0.277c-0.029,0.02-0.051,0.029-0.098,0.039c-0.705,0.221-0.925,0.26-1.342,0.26
				c-1.996,0-3.543-1.457-3.543-3.334c0-1.869,1.559-3.361,3.514-3.361c0.438,0,0.965,0.096,1.399,0.268
				c0.14,0.049,0.149,0.087,0.149,0.316v1.148H141.816z"/>
		</g>
	</g>
	<g>
		<g>
			<path fill="#511575" d="M156.314,49.111c-0.1,0.183-0.138,0.229-0.237,0.222c-0.06,0,0.028,0.039-0.526-0.258
				c-0.119-0.059-0.297-0.086-0.525-0.086c-0.406,0-0.735,0.239-0.735,0.545c0,0.202,0.149,0.364,0.446,0.498
				c0.091,0.039,0.16,0.059,0.746,0.23c1.15,0.324,1.627,0.852,1.627,1.771c0,1.436-0.952,2.279-2.582,2.279
				c-0.713,0-1.608-0.259-2.145-0.613c-0.06-0.048-0.107-0.115-0.099-0.162c0-0.039,0.039-0.115,0.089-0.211l0.417-0.758
				c0.101-0.182,0.128-0.21,0.237-0.21c0.061,0,0.021-0.028,0.438,0.259c0.269,0.172,0.664,0.286,1.021,0.286
				c0.498,0,0.826-0.247,0.826-0.622c0-0.345-0.229-0.507-1.033-0.736c-0.756-0.211-1.043-0.336-1.29-0.537
				c-0.328-0.277-0.498-0.689-0.498-1.244c0-1.285,0.913-2.156,2.253-2.156c0.596,0,1.48,0.201,1.917,0.43
				c0.069,0.039,0.108,0.105,0.108,0.174c0,0.037-0.019,0.086-0.08,0.201L156.314,49.111z"/>
		</g>
	</g>
	<g>
		<g>
			<path fill="#511575" d="M3.528,0H2.175C0.177,0,0,0.172,0,2.099v37.157c0,1.928,0.177,2.1,2.175,2.1h1.354
				c1.998,0,2.174-0.17,2.174-2.1V2.099C5.702,0.172,5.526,0,3.528,0"/>
		</g>
	</g>
	<g>
		<g>
			<path fill="#511575" d="M17.459,7.546c0-1.986-1.648-3.575-3.706-3.575c-2.117,0-3.761,1.589-3.761,3.575
				c0,1.698,1.25,3.144,2.861,3.526v6.403c-1.808,0.014-1.98,0.235-1.98,2.098v19.685c0,1.928,0.177,2.098,2.177,2.098h1.35
				c2,0,2.176-0.169,2.176-2.098V19.572c0-1.862-0.17-2.084-1.982-2.098v-6.409C16.226,10.669,17.459,9.232,17.459,7.546"/>
		</g>
	</g>
	<g>
		<g>
			<path fill="#511575" d="M32.095,17.474h-2.292v-6.637c0-1.93-0.175-2.101-2.174-2.101h-1.354c-2,0-2.176,0.171-2.176,2.101v6.637
				h-0.294c-1.939,0-2.117,0.169-2.117,2.098v0.964c0,1.929,0.178,2.099,2.117,2.099H24.1v16.622c0,1.928,0.176,2.099,2.176,2.099
				h1.354c1.999,0,2.174-0.17,2.174-2.099V22.635h2.292c2,0,2.177-0.17,2.177-2.099v-0.964
				C34.271,17.643,34.095,17.474,32.095,17.474"/>
		</g>
	</g>
	<g>
		<g>
			<path fill="#511575" d="M48.083,17.474h-2.291v-6.637c0-1.93-0.176-2.101-2.175-2.101h-1.353c-1.999,0-2.175,0.171-2.175,2.101
				v6.637h-0.295c-1.939,0-2.117,0.169-2.117,2.098v0.964c0,1.929,0.178,2.099,2.117,2.099h0.295v16.622
				c0,1.928,0.176,2.099,2.175,2.099h1.353c1.999,0,2.175-0.17,2.175-2.099V22.635h2.291c2,0,2.177-0.17,2.177-2.099v-0.964
				C50.26,17.643,50.083,17.474,48.083,17.474"/>
		</g>
	</g>
	<g>
		<g>
			<path fill="#511575" d="M57.312,0H55.96c-2,0-2.174,0.172-2.174,2.099v37.157c0,1.928,0.175,2.1,2.174,2.1h1.351
				c2.001,0,2.177-0.17,2.177-2.1V2.099C59.488,0.172,59.312,0,57.312,0"/>
		</g>
	</g>
	<g>
		<g>
			<path fill="#511575" d="M69.247,26.265c0.704-2.723,2.938-4.424,5.701-4.424c2.939,0,4.998,1.587,5.762,4.424H69.247z
				 M86.587,29.273c0-7.546-4.526-12.424-11.64-12.424c-7.349,0-12.051,4.935-12.051,12.763c0,7.432,4.937,12.479,12.168,12.479
				c3.704,0,6.997-1.303,9.348-3.686c1.175-1.248,1.882-2.27,1.882-2.838c0-0.623-0.237-0.852-1.413-1.475l-1.056-0.566
				c-0.769-0.455-1.119-0.566-1.414-0.566c-0.527,0-0.882,0.227-1.233,0.793c-1.471,2.271-3.469,3.404-5.88,3.404
				c-3.644,0-6.114-2.498-6.407-6.41h15.521C86.175,30.747,86.587,30.463,86.587,29.273"/>
		</g>
	</g>
	<g>
		<g>
			<path fill="#511575" d="M100.695,35.965H97.05V24.564h2.999c5.703,0,8.524,1.927,8.524,5.843
				C108.573,33.922,105.751,35.965,100.695,35.965 M97.05,8.794h2.06c3.994,0,6.172,1.926,6.172,5.444c0,3.63-2.176,5.56-6.408,5.56
				H97.05V8.794z M107.689,20.989c2.176-1.872,3.178-4.084,3.178-6.75c0-3.52-1.766-6.977-4.469-8.791
				c-2.058-1.363-4.705-1.93-9.408-1.93h-3.702c-2,0-2.175,0.171-2.175,2.098v33.64c0,1.927,0.175,2.099,2.175,2.099h6.819
				c5.293,0,7.762-0.681,10.347-2.722c2.528-2.043,3.938-4.936,3.938-8.17C114.393,26.037,111.807,22.408,107.689,20.989"/>
		</g>
	</g>
	<g>
		<g>
			<path fill="#511575" d="M124.387,7.546c0-1.986-1.646-3.575-3.705-3.575c-2.115,0-3.763,1.589-3.763,3.575
				c0,1.698,1.251,3.144,2.862,3.526v6.403c-1.809,0.014-1.979,0.235-1.979,2.098v19.685c0,1.928,0.176,2.098,2.174,2.098h1.353
				c1.999,0,2.175-0.169,2.175-2.098V19.572c0-1.862-0.172-2.084-1.98-2.098v-6.409C123.154,10.669,124.387,9.232,124.387,7.546"/>
		</g>
	</g>
	<g>
		<g>
			<path fill="#511575" d="M138.141,17.474h-2.293v-6.637c0-1.93-0.176-2.101-2.174-2.101h-1.354c-1.997,0-2.176,0.171-2.176,2.101
				v6.637h-0.295c-1.938,0-2.113,0.169-2.113,2.098v0.964c0,1.929,0.176,2.099,2.113,2.099h0.295v16.622
				c0,1.928,0.178,2.099,2.176,2.099h1.354c1.998,0,2.174-0.17,2.174-2.099V22.635h2.293c2,0,2.176-0.17,2.176-2.099v-0.964
				C140.316,17.643,140.141,17.474,138.141,17.474"/>
		</g>
	</g>
	<g>
		<g>
			<path fill="#511575" d="M151.133,26.208c-2.703-1.192-3.292-1.702-3.292-2.723c0-0.964,0.824-1.701,1.882-1.701
				c0.881,0,1.293,0.226,2.116,1.248c0.293,0.397,0.646,0.568,1.056,0.568c0.295,0,0.414-0.057,1.354-0.568l1.058-0.511
				c1.235-0.623,1.412-0.851,1.412-1.475c0-1.872-3.644-4.196-6.644-4.196c-4.351,0-7.642,3.062-7.642,7.203
				c0,2.949,1.174,4.426,4.819,6.185c5.351,2.552,5.703,2.837,5.703,4.368s-1.175,2.553-2.938,2.553
				c-1.117,0-2.176-0.455-2.705-1.248c-1.117-1.477-1.235-1.591-1.82-1.533c-0.237,0-0.649,0.17-1.297,0.455l-1.116,0.51
				c-1.292,0.568-1.527,0.793-1.527,1.418c0,0.396,0.235,0.965,0.765,1.646c1.646,2.324,4.526,3.686,7.701,3.686
				c4.879,0,8.758-3.572,8.758-8.055C158.773,30.521,157.188,28.932,151.133,26.208"/>
		</g>
	</g>
	<g>
		<g>
			<path fill="#511575" d="M158.438,14.248c-0.02-0.053-0.039-0.082-0.051-0.091c-0.014-0.008-0.048-0.012-0.104-0.012h-0.477
				c-0.062,0-0.101,0.005-0.113,0.018c-0.016,0.012-0.026,0.047-0.037,0.103l-0.43,2.438c-0.006,0.037-0.009,0.06-0.009,0.071
				c0,0.03,0.009,0.049,0.029,0.06c0.021,0.012,0.056,0.018,0.11,0.018h0.439c0.059,0,0.096-0.006,0.111-0.019
				c0.014-0.012,0.027-0.047,0.035-0.104l0.221-1.437l0.604,1.458c0.021,0.05,0.039,0.079,0.051,0.087
				c0.016,0.01,0.051,0.014,0.105,0.014h0.064c0.055,0,0.091-0.004,0.104-0.014c0.014-0.008,0.03-0.037,0.051-0.086l0.637-1.459
				l0.189,1.435c0.008,0.057,0.02,0.093,0.032,0.105c0.017,0.013,0.056,0.019,0.116,0.019h0.443c0.053,0,0.092-0.005,0.11-0.018
				c0.019-0.011,0.03-0.03,0.03-0.06c0-0.01-0.004-0.033-0.01-0.069l-0.381-2.438c-0.01-0.056-0.021-0.091-0.037-0.103
				c-0.015-0.015-0.051-0.02-0.111-0.02h-0.482c-0.054,0-0.091,0.004-0.104,0.012c-0.012,0.009-0.029,0.039-0.053,0.089l-0.56,1.343
				L158.438,14.248z M156.865,14.739c0.062,0,0.099-0.007,0.115-0.022c0.016-0.016,0.023-0.054,0.023-0.113v-0.326
				c0-0.06-0.009-0.096-0.023-0.111c-0.018-0.016-0.055-0.023-0.115-0.023h-1.649c-0.062,0-0.101,0.007-0.116,0.023
				c-0.016,0.015-0.022,0.051-0.022,0.111v0.326c0,0.059,0.008,0.097,0.022,0.113c0.016,0.015,0.055,0.022,0.116,0.022h0.454v1.977
				c0,0.061,0.008,0.098,0.023,0.113c0.017,0.016,0.056,0.023,0.117,0.023h0.45c0.062,0,0.101-0.007,0.116-0.023
				c0.016-0.015,0.023-0.052,0.023-0.113v-1.977H156.865z"/>
		</g>
	</g>
</g>
</svg>
